<svg enable-background="new 0 0 1150 34" height="34" viewBox="0 0 1150 34" width="1150" xmlns="http://www.w3.org/2000/svg"><path d="m1121.252 0c-14.375 0-14.375 14-28.749 14s-14.374-14-28.748-14-14.374 14-28.748 14c-14.375 0-14.375-14-28.75-14-14.374 0-14.374 14-28.748 14s-14.374-14-28.748-14-14.374 14-28.749 14-14.375-14-28.749-14-14.374 14-28.749 14-14.375-14-28.75-14c-14.371 0-14.371 14-28.743 14-14.375 0-14.375-14-28.75-14-14.372 0-14.372 14-28.744 14-14.374 0-14.374-14-28.747-14s-14.373 14-28.747 14c-14.373 0-14.373-14-28.746-14-14.374 0-14.374 14-28.748 14-14.375 0-14.375-14-28.751-14-14.374 0-14.374 14-28.748 14s-14.374-14-28.748-14-14.374 14-28.748 14-14.374-14-28.748-14c-14.375 0-14.375 14-28.75 14-14.376 0-14.376-14-28.753-14-14.375 0-14.375 14-28.75 14s-14.375-14-28.751-14c-14.375 0-14.375 14-28.75 14s-14.376-14-28.751-14-14.375 14-28.751 14-14.376-14-28.753-14c-14.374 0-14.374 14-28.747 14-14.375 0-14.375-14-28.75-14s-14.375 14-28.751 14c-14.377 0-14.377-14-28.754-14s-14.377 14-28.755 14-14.378-14-28.756-14-14.378 14-28.756 14c-14.379 0-14.379-14-28.759-14s-14.379 14-28.759 14v20h1150v-20c-14.374 0-14.374-14-28.748-14z" fill="#fff"/></svg>