<svg enable-background="new 0 0 34.373 34.373" height="34.373" viewBox="0 0 34.373 34.373" width="34.373" xmlns="http://www.w3.org/2000/svg"><g fill="#63d1bb"><path d="m.286 14.069c-.382 2.073-.384 4.211.008 6.301l4.121-3.21z"/><path d="m24.403 1.585c-4.783-2.208-10.444-2.144-15.254.407l7.513 5.625z"/><path d="m33.901 13.175-4.811 3.748 4.936 3.695c.496-2.445.463-4.988-.125-7.443z"/><path d="m9.209 32.414c4.844 2.534 10.724 2.65 15.73.113l-8.096-6.062z"/><path d="m7.914 14.433-6.233-4.666c-.32.669-.595 1.356-.825 2.056l5.308 3.974z"/><path d="m18.593 25.102 8.336 6.242c.277-.191.551-.391.82-.601.318-.248.625-.505.92-.771l-8.326-6.234z"/><path d="m11.413 11.707-7.411-5.549c-.462.551-.885 1.127-1.269 1.723l6.931 5.189z"/><path d="m22.093 22.375 8.092 6.059c.471-.544.904-1.112 1.297-1.701l-7.639-5.721z"/><path d="m14.913 8.98-7.717-5.777c-.193.138-.384.279-.573.426-.396.309-.774.632-1.136.968l7.676 5.747z"/><path d="m25.592 19.649 6.972 5.221c.33-.662.615-1.341.855-2.033l-6.077-4.55z"/><path d="m26.448 2.706-25.568 19.92c.233.698.513 1.386.839 2.059l26.52-20.663c-.572-.481-1.171-.92-1.791-1.316z"/><path d="m30.743 6.624c-.301-.386-.614-.754-.939-1.106l-27.018 21.049c.262.402.542.797.843 1.183.142.183.288.359.436.534l27.09-21.108c-.134-.186-.269-.37-.412-.552z"/><path d="m32.298 8.999-26.746 20.839c.544.501 1.114.962 1.708 1.382l25.962-20.228c-.263-.678-.571-1.344-.924-1.993z"/></g></svg>