<svg enable-background="new 264.205 370.961 20.294 18.849" height="19" viewBox="264.205 370.961 20.294 18.849" width="20" xmlns="http://www.w3.org/2000/svg"><path d="m283.75 378.19h-3.151l-3.407-6.814c-.185-.37-.634-.52-1.006-.335-.371.186-.521.636-.335 1.006l3.071 6.143h-9.138l3.072-6.143c.185-.371.035-.821-.335-1.006s-.821-.035-1.006.335l-3.407 6.814h-3.151c-.414 0-.75.336-.75.75s.336.75.75.75h.157l.855 2.991c-.187.137-.316.347-.316.595 0 .396.309.71.697.739l1.656 5.795h12.697l1.656-5.795c.388-.028.698-.344.698-.739 0-.249-.129-.459-.316-.596l.854-2.991h.157c.414 0 .75-.336.75-.75s-.338-.749-.752-.749zm-4.181 10.121h-10.433l-1.224-4.284h12.881zm1.653-5.785h-13.739l-.81-2.836h15.359z" fill="#231f20"/></svg>