<svg enable-background="new 226.001 226.19 60 59.62" height="59.62" viewBox="226.001 226.19 60 59.62" width="60" xmlns="http://www.w3.org/2000/svg"><path d="m226.001 269.871 27.438 15.934v-23.346l-27.438-15.94zm51.346-31.244v2.453c0 1.817-3.458 3.29-7.73 3.29-4.266 0-7.727-1.473-7.727-3.29v-4.059h.024c.26 1.714 3.604 3.073 7.702 3.073 4.272 0 7.729-1.474 7.729-3.285 0-1.819-3.457-3.289-7.729-3.289-.339 0-.675.01-1.002.03l-4.975-2.888v3.086c0 1.817-3.454 3.29-7.723 3.29-2.683 0-5.045-.583-6.433-1.467-.196-.203-.439-.401-.732-.586-.363-.381-.565-.797-.565-1.236v-2.986l-4.807 2.792c-.347-.017-.696-.033-1.054-.033-4.267 0-7.727 1.469-7.727 3.289 0 1.811 3.46 3.285 7.727 3.285 4.099 0 7.446-1.358 7.705-3.073h.022v4.059c0 1.817-3.455 3.29-7.727 3.29-4.267 0-7.727-1.473-7.727-3.29v-2.42l-5.952 3.452 27.531 15.986 27.351-15.882zm-13.644 10.166c0 1.817-3.46 3.287-7.727 3.287-4.269 0-7.729-1.47-7.729-3.287v-4.059h.024c.26 1.715 3.603 3.076 7.705 3.076 4.101 0 7.443-1.361 7.705-3.076h.021v4.059zm-5.145 13.873v23.144l27.442-15.939v-23.144zm-2.641-29.904c4.269 0 7.723-1.47 7.723-3.286 0-1.814-3.454-3.287-7.723-3.287-4.27 0-7.729 1.472-7.729 3.287-.001 1.816 3.459 3.286 7.729 3.286" fill="#231f20"/></svg>