<svg enable-background="new 8.014 4.35 31.972 37.301" height="37.301" viewBox="8.014 4.35 31.972 37.301" width="31.972" xmlns="http://www.w3.org/2000/svg"><path d="m24 41.65c8.827 0 15.986-7.159 15.986-15.986-8.828 0-15.986 7.158-15.986 15.986zm-11.359-20.87c0 2.451 1.989 4.441 4.44 4.441.932 0 1.803-.294 2.513-.782l-.036.337c0 2.451 1.99 4.441 4.441 4.441s4.44-1.99 4.44-4.441l-.036-.337c.719.497 1.582.782 2.514.782 2.451 0 4.44-1.99 4.44-4.441 0-1.768-1.038-3.286-2.54-3.997 1.492-.71 2.54-2.229 2.54-3.997 0-2.451-1.989-4.44-4.44-4.44-.932 0-1.803.293-2.514.781l.037-.337c0-2.451-1.989-4.44-4.44-4.44s-4.441 1.99-4.441 4.44l.036.337c-.719-.497-1.581-.781-2.513-.781-2.451 0-4.44 1.99-4.44 4.44 0 1.768 1.039 3.286 2.54 3.997-1.502.711-2.541 2.229-2.541 3.997zm11.359-8.437c2.451 0 4.44 1.989 4.44 4.44s-1.989 4.44-4.44 4.44-4.441-1.99-4.441-4.44c0-2.451 1.99-4.44 4.441-4.44zm-15.986 13.321c0 8.827 7.158 15.986 15.986 15.986 0-8.828-7.158-15.986-15.986-15.986z" fill="#63d1bb"/></svg>