<svg enable-background="new 0 0 24.829 24.333" height="24.333" viewBox="0 0 24.829 24.333" width="24.829" xmlns="http://www.w3.org/2000/svg"><path d="m17.321 24.333c-.371 0-.744 0-1.115 0-4.904-.58-8.497-2.857-11.11-5.772-2.623-2.924-4.694-6.686-5.096-11.744 0-.453 0-.906 0-1.358.091-.921.544-1.55 1.067-2.086.65-.666 1.63-1.522 2.522-1.553.659-.022 1.78.451 2.232 1.066.388.53.595 1.59.775 2.378.185.797.6 1.95.485 2.717-.176 1.196-1.764 1.703-2.231 2.572 1.551 3.721 4.089 6.456 7.472 8.345.847-.465 1.595-1.864 2.767-1.892.428-.012.972.209 1.406.34.477.143.891.326 1.311.484.705.266 1.957.621 2.378 1.213.433.61.681 1.608.581 2.231-.194 1.234-2.227 2.603-3.444 3.059z"/><path d="m12.529 1.528c5.949 0 10.771 4.822 10.771 10.771h1.529c0-6.792-5.506-12.299-12.3-12.299z"/><path d="m12.529 9.327v1.552c.785 0 1.421.636 1.421 1.42h1.553c-.001-1.642-1.331-2.972-2.974-2.972z"/><path d="m12.529 6.246c3.345 0 6.056 2.71 6.056 6.054h1.588c0-4.22-3.422-7.641-7.644-7.641z"/></svg>