<svg enable-background="new 46.212 56.834 46.575 27.332" height="27.332" viewBox="46.212 56.834 46.575 27.332" width="46.575" xmlns="http://www.w3.org/2000/svg"><g fill="#63d1bb"><path d="m88.882 56.834h-38.766c-2.156 0-3.904 1.749-3.904 3.905v19.521c0 2.156 1.748 3.905 3.904 3.905h38.766c2.156 0 3.905-1.749 3.905-3.905v-19.521c0-2.156-1.749-3.905-3.905-3.905zm-39.647 24.95v-22.233h40.202v22.233z"/><path d="m53.14 77.88h32.395v-14.424h-32.395zm16.36-12.526c2.936 0 5.315 2.38 5.315 5.314 0 2.936-2.379 5.314-5.315 5.314s-5.314-2.379-5.314-5.314c-.001-2.935 2.378-5.314 5.314-5.314z"/></g></svg>