<svg enable-background="new -0.8 -0.8 17.6 17.6" height="17.6" viewBox="-.8 -.8 17.6 17.6" width="17.6" xmlns="http://www.w3.org/2000/svg"><path d="m16.47 14.93-3.415-3.415c.965-1.289 1.545-2.881 1.545-4.616 0-4.253-3.447-7.699-7.7-7.699s-7.7 3.446-7.7 7.699 3.446 7.7 7.699 7.7c1.734 0 3.326-.58 4.613-1.546l3.417 3.416c.203.202.418.33.771.33.607 0 1.1-.492 1.1-1.1 0-.24-.061-.499-.33-.769zm-15.071-8.031c0-3.038 2.462-5.5 5.5-5.5s5.5 2.462 5.5 5.5-2.462 5.5-5.5 5.5-5.5-2.461-5.5-5.5z" fill="#231f20"/></svg>